<svg width="111" height="32" viewBox="0 0 111 32" fill="none" xmlns="http://www.w3.org/2000/svg">
<g clip-path="url(#clip0_834_4082)">
<path fill-rule="evenodd" clip-rule="evenodd" d="M76.8123 23.357C75.1623 25.127 73.0433 26.026 70.5153 26.026C67.9863 26.026 65.8673 25.127 64.2183 23.357C62.6433 21.671 61.7383 18.975 61.7383 15.963C61.7383 13.023 62.6533 10.364 64.2453 8.666C65.9113 6.896 68.0203 5.993 70.5133 5.986C73.0103 5.993 75.1193 6.896 76.7843 8.666C78.3783 10.364 79.2913 13.023 79.2913 15.963C79.2913 18.975 78.3873 21.671 76.8123 23.357ZM54.6723 15.963C54.6723 16.099 54.6783 16.233 54.6823 16.367C52.1523 14.064 48.4943 13.207 46.2593 12.76C42.1243 11.888 38.9653 11.09 38.9653 8.146C38.9653 6.069 40.8253 4.558 44.3983 4.817C47.6633 5.054 49.0383 7.05 49.4153 8.976C49.4693 9.292 49.6153 9.522 49.9753 9.525L55.8473 9.575C55.8753 9.575 55.8993 9.572 55.9243 9.57C55.0963 11.501 54.6723 13.651 54.6723 15.963ZM44.6853 26.765C41.8453 26.765 38.7163 25.756 37.9953 21.852C37.9343 21.479 37.7583 21.325 37.4723 21.317L31.7953 21.241V11.206C32.5413 14.147 35.0123 16.183 40.3563 17.386C43.9333 18.242 50.1383 18.786 50.1383 22.458C50.1383 25.018 48.2533 26.825 44.6853 26.765ZM16.4093 26.03C11.8293 26.03 7.6333 22.425 7.6333 15.967C7.6333 10.9 10.7793 5.99 16.4393 5.99C18.8913 5.99 25.1083 6.83 25.1083 15.967C25.1083 25.128 18.6173 26.03 16.4083 26.03H16.4093ZM86.1883 13.502C87.4913 15.24 89.8433 16.527 93.6643 17.387C97.2403 18.243 103.446 18.787 103.446 22.459C103.446 25.019 101.56 26.826 97.9933 26.766C95.1543 26.766 92.0233 25.757 91.3033 21.853C91.2433 21.48 91.0673 21.326 90.7803 21.318L85.5203 21.248C86.0753 19.611 86.3583 17.838 86.3583 15.964C86.358 15.1404 86.3012 14.3178 86.1883 13.502ZM97.6053 31.876C103.904 31.876 111.328 29.531 110.747 21.925C110.105 15.173 103.079 13.463 99.5673 12.761C95.4313 11.889 92.2723 11.091 92.2723 8.147C92.2723 6.07 94.1323 4.559 97.7063 4.818C100.971 5.055 102.346 7.051 102.723 8.977C102.777 9.293 102.924 9.523 103.283 9.526L109.155 9.576C109.602 9.579 109.741 9.347 109.685 9.029C108.535 1.991 102.655 0 97.2443 0C91.8413 0 85.3313 1.518 84.8693 8.239C84.8533 8.499 84.8473 8.755 84.8473 9.006C83.9873 7.218 82.7473 5.576 81.1493 4.122C78.1993 1.462 74.5213 0.037 70.5103 0.002H70.3773C68.4613 0.002 66.5863 0.355 64.8033 1.055C62.991 1.77185 61.3234 2.81095 59.8813 4.122C58.3683 5.498 57.1733 7.042 56.3193 8.719C55.0473 1.936 49.2653 0 43.9353 0C38.9753 0 33.0813 1.283 31.7953 6.7V1.323C31.795 1.18526 31.7401 1.05325 31.6426 0.955951C31.5451 0.858648 31.413 0.804 31.2753 0.804H25.7453C25.6076 0.804265 25.4756 0.859167 25.3782 0.956658C25.2809 1.05415 25.2263 1.18626 25.2263 1.324V2.774C25.2263 3.018 25.0633 3.103 24.8643 2.961C22.8973 1.534 19.9873 0.003 16.4853 0.003C14.5173 0.003 12.6383 0.349 10.8993 1.031C9.1593 1.715 7.5053 2.756 5.9873 4.126C4.2593 5.698 2.9433 7.49 2.0803 9.452C1.2173 11.414 0.779297 13.606 0.779297 15.966C0.779297 18.169 1.1673 20.235 1.9313 22.102C2.6953 23.969 3.8583 25.696 5.3893 27.236C6.9193 28.776 8.6313 29.946 10.4743 30.716C12.3173 31.483 14.3483 31.872 16.5143 31.872C20.2363 31.872 23.0293 30.287 24.8593 28.846C25.0613 28.692 25.2263 28.775 25.2263 29.027V30.55C25.2263 30.836 25.4603 31.07 25.7463 31.07H31.2763C31.414 31.0695 31.5458 31.0145 31.6431 30.9171C31.7403 30.8196 31.795 30.6877 31.7953 30.55V25.42C34.4023 31.55 41.0453 31.875 44.2973 31.875C49.7333 31.875 56.0023 30.125 57.2463 24.757C57.8443 25.6454 58.5265 26.4742 59.2833 27.232C62.2473 30.215 66.1313 31.819 70.5203 31.867H70.7003C72.7843 31.867 74.7953 31.467 76.6773 30.676C78.5773 29.8726 80.3002 28.7023 81.7473 27.232C82.8298 26.1528 83.7543 24.926 84.4933 23.588C86.4643 31.491 94.0563 31.876 97.6053 31.876Z" fill="#1B243F"/>
</g>
<defs>
<clipPath id="clip0_834_4082">
<rect width="110" height="32" fill="white" transform="translate(0.779297)"/>
</clipPath>
</defs>
</svg>
