<svg width="144" height="30" viewBox="0 0 144 30" fill="none" xmlns="http://www.w3.org/2000/svg">
<path d="M18.6528 4.06966C18.5657 4.08024 18.2555 4.11725 17.9725 4.14897C14.2067 4.56666 10.849 6.49122 8.89535 9.35161C7.14847 11.9053 6.51176 15.1358 7.11582 18.3399C8.10082 23.5373 12.3183 27.2383 18.0324 27.9151C18.8977 28.0208 20.7099 28.0314 21.586 27.9415C24.171 27.6719 26.1409 26.9105 27.964 25.4724C28.5191 25.0335 29.3354 24.2669 29.7435 23.7858C31.104 22.1996 30.6251 19.778 28.7585 18.8263C27.7409 18.3029 26.696 18.2976 25.6457 18.7946C25.2648 18.9797 25.0798 19.1171 24.5301 19.6353C23.3982 20.7033 22.522 21.2373 21.4228 21.5228C20.9384 21.6497 20.786 21.6603 19.9044 21.6656C18.7344 21.6709 18.2719 21.5757 17.4011 21.1686C16.2257 20.6134 15.4039 19.6723 14.9577 18.3663C14.6747 17.5468 14.5822 16.9441 14.5822 15.9871C14.5822 14.808 14.7781 13.8986 15.208 13.0527C16.0951 11.3185 17.7005 10.4091 19.85 10.4196C21.6459 10.4302 23.2458 11.2392 24.3886 12.7143C25.6675 14.3692 28.0783 14.5437 29.5639 13.0844C30.2823 12.3865 30.5707 11.6939 30.5653 10.6999C30.5544 9.57896 30.2279 8.97093 28.851 7.55924C27.2457 5.91491 25.3627 4.84689 23.2349 4.3869C22.1302 4.14368 21.5588 4.08553 20.1493 4.06437C19.4147 4.0538 18.7453 4.05909 18.6528 4.06966Z" fill="#1B243F"/>
<path d="M67.168 4.09609C61.6008 4.65653 57.2581 8.12496 55.9847 13.0209C55.5494 14.7023 55.484 16.574 55.7942 18.25C56.5561 22.3 59.2989 25.4988 63.3531 27.0638C66.6891 28.3486 70.8304 28.3275 74.1282 27.0057C78.1063 25.4089 80.7892 22.1943 81.5021 18.1813C81.8014 16.5158 81.7198 14.6388 81.2844 12.9522C80.9144 11.5299 80.1797 10.0495 79.2437 8.83874C78.7757 8.23071 77.5349 7.04108 76.8819 6.57051C74.9445 5.17468 72.6589 4.34459 70.0576 4.0908C69.3992 4.02735 67.8319 4.03264 67.168 4.09609ZM69.8617 10.409C71.9895 10.8056 73.4534 12.3547 73.8833 14.6706C74.1391 16.0558 73.9813 17.6896 73.4752 18.8528C72.9419 20.0688 71.995 21.0047 70.8304 21.4699C70.1338 21.7449 69.6495 21.8242 68.6645 21.8242C67.87 21.8242 67.6686 21.8083 67.2496 21.7026C65.149 21.1739 63.7994 19.6564 63.3803 17.3459C63.2606 16.6956 63.2606 15.4372 63.3803 14.7763C63.8592 12.1856 65.4918 10.6152 68.0115 10.3297C68.4795 10.2769 69.3502 10.3139 69.8617 10.409Z" fill="#1B243F"/>
<path d="M96.9355 4.11724C93.839 4.49264 91.3031 5.60825 89.3004 7.47464C86.3346 10.2346 85.0884 14.348 85.9482 18.5408C86.4815 21.1421 87.8801 23.4579 89.9263 25.1181C90.8786 25.8901 92.2228 26.6514 93.4254 27.1061C95.2648 27.7988 97.5396 28.1266 99.6293 27.9891C102.481 27.8093 104.44 27.1537 106.432 25.7209C107.096 25.245 108.494 23.9021 108.772 23.4791C109.338 22.6014 109.468 21.5545 109.126 20.6028C108.636 19.2493 107.221 18.3399 105.752 18.4404C104.783 18.5038 104.299 18.7364 103.362 19.6036C101.948 20.9095 101.006 21.4224 99.6402 21.6233C98.5409 21.7872 97.2239 21.6391 96.3151 21.2479C94.8404 20.6134 93.8173 19.2123 93.4744 17.3618C93.3601 16.7432 93.3438 15.3473 93.4472 14.7446C93.8064 12.6085 95.1342 11.0911 97.0661 10.5994C99.3409 10.0178 101.665 10.795 103.085 12.6085C103.515 13.1531 103.885 13.4651 104.413 13.7136C105.42 14.2 106.464 14.2 107.466 13.7189C108.647 13.1478 109.349 12.0587 109.36 10.7792C109.365 9.90148 109.109 9.24057 108.489 8.50036C106.66 6.32731 104.734 5.05837 102.334 4.45563C101.224 4.17541 100.435 4.08552 98.9218 4.06437C97.9532 4.04851 97.3818 4.06437 96.9355 4.11724Z" fill="#1B243F"/>
<path d="M121.533 4.0749C119.792 4.23352 118.611 4.51903 117.474 5.04775C115.455 5.98359 114.257 7.42172 113.746 9.53661C113.604 10.1129 113.544 11.7731 113.637 12.4605C113.996 15.0935 115.64 16.9758 118.54 18.0914C119.231 18.3557 120.14 18.6148 121.669 18.9743C124.94 19.741 125.359 19.889 125.615 20.3754C125.762 20.6504 125.762 21.1527 125.62 21.4223C125.315 21.9986 124.657 22.2154 123.046 22.263C120.799 22.3317 119.395 21.9035 117.408 20.5288C116.663 20.0106 116.325 19.8626 115.683 19.7833C114.35 19.6088 113.006 20.4442 112.538 21.7395C112.374 22.1943 112.374 23.0825 112.543 23.5584C112.663 23.8862 112.957 24.3779 113.191 24.6317C113.582 25.0599 114.878 25.9746 115.738 26.4293C118.203 27.7353 121.626 28.2693 125.152 27.9045C129 27.5026 131.443 25.8795 132.325 23.1512C132.602 22.2894 132.744 21.3694 132.744 20.3913C132.744 18.4932 132.134 17.0233 130.85 15.8178C129.484 14.5383 127.71 13.7611 124.673 13.1002C121.93 12.508 121.348 12.3441 120.837 12.0269C120.396 11.7467 120.26 11.4982 120.254 10.9853C120.254 10.6681 120.276 10.5835 120.407 10.3931C120.673 9.9966 121.141 9.79569 122.023 9.68994C123.808 9.47845 125.702 10.0759 127.356 11.3713C128.053 11.9159 128.613 12.1274 129.37 12.1274C130.344 12.1274 131.171 11.7097 131.742 10.9324C132.368 10.0812 132.455 9.03961 131.987 8.08262C131.753 7.60149 131.389 7.18908 130.676 6.6022C128.913 5.14821 126.85 4.34984 124.205 4.09076C123.694 4.04318 121.99 4.02732 121.533 4.0749Z" fill="#1B243F"/>
<path d="M37.8738 4.408C36.5351 4.61421 35.4957 5.36499 34.9188 6.54405C34.5488 7.30012 34.5651 6.76611 34.5814 16.3201L34.5978 24.9489L34.761 25.3983C35.1692 26.5351 36.1215 27.4128 37.346 27.7881C37.8629 27.9415 38.8098 27.9573 39.3595 27.8146C40.4152 27.5449 41.3676 26.7836 41.8356 25.8477C42.2111 25.0917 42.2056 25.1815 42.2437 21.6179C42.2764 18.6254 42.2873 18.3504 42.3961 17.7636C42.543 17.0075 42.641 16.6321 42.826 16.1298C43.5879 14.0731 45.0899 12.709 47.049 12.3071C47.5932 12.1961 48.0721 12.2172 48.8339 12.3759C49.77 12.5662 50.755 12.5768 51.3046 12.4023C51.8869 12.212 52.3984 11.8947 52.8828 11.4189C53.6229 10.6892 53.9657 9.875 53.9657 8.84928C53.9603 8.1778 53.8623 7.7654 53.563 7.1838C53.144 6.36957 52.627 5.88843 51.6855 5.43373C50.7495 4.98431 50.423 4.91558 49.155 4.91558C47.9415 4.91558 47.3592 4.99489 46.4232 5.28569C45.0518 5.71395 43.675 6.50175 42.6138 7.46403C42.4179 7.64379 42.2437 7.79183 42.222 7.79183C42.2056 7.79183 42.1893 7.71781 42.1893 7.62793C42.1893 7.15208 41.7594 6.20566 41.3077 5.68752C40.8125 5.12178 40.0833 4.67765 39.3486 4.4926C38.935 4.39214 38.2602 4.34985 37.8738 4.408Z" fill="#1B243F"/>
<path d="M134.626 5.33012H134.734V4.7613C134.734 4.60869 134.738 4.48903 134.747 4.40231C134.755 4.3156 134.779 4.24103 134.817 4.1786C134.856 4.11386 134.911 4.06125 134.983 4.02078C135.055 3.98032 135.136 3.96009 135.225 3.96008C135.35 3.96009 135.463 4.00518 135.563 4.09535C135.631 4.15548 135.673 4.22889 135.691 4.3156C135.71 4.40232 135.719 4.52545 135.719 4.68499V5.33012H136.079C136.219 5.33013 136.325 5.36192 136.398 5.42551C136.472 5.4891 136.508 5.57061 136.508 5.67003C136.508 5.79721 136.456 5.88624 136.351 5.9371C136.247 5.98798 136.097 6.01341 135.902 6.01341H135.719V7.75458C135.719 7.90256 135.724 8.01644 135.735 8.09622C135.746 8.17599 135.774 8.24074 135.821 8.29045C135.868 8.34017 135.944 8.36502 136.05 8.36502C136.108 8.36502 136.186 8.3552 136.285 8.33554C136.383 8.31589 136.46 8.30606 136.515 8.30606C136.595 8.30606 136.666 8.3367 136.73 8.39797C136.794 8.45925 136.825 8.53498 136.825 8.62516C136.825 8.77777 136.739 8.89454 136.566 8.97547C136.393 9.0564 136.144 9.09687 135.819 9.09687C135.512 9.09687 135.279 9.04715 135.12 8.94773C134.961 8.8483 134.857 8.71071 134.808 8.53498C134.759 8.35924 134.734 8.12455 134.734 7.83088V6.01341H134.604C134.463 6.01341 134.354 5.98104 134.28 5.91629C134.205 5.85155 134.168 5.76947 134.168 5.67003C134.168 5.57061 134.207 5.4891 134.285 5.42551C134.363 5.36192 134.477 5.33013 134.626 5.33012Z" fill="#1B243F"/>
<path d="M140.456 7.24119V8.50024C140.456 8.6991 140.409 8.84824 140.316 8.94767C140.222 9.0471 140.098 9.09681 139.944 9.09681C139.795 9.09681 139.674 9.0471 139.582 8.94767C139.489 8.84824 139.443 8.6991 139.443 8.50024V6.99146C139.443 6.75329 139.435 6.56831 139.418 6.43651C139.401 6.30471 139.355 6.19661 139.281 6.11221C139.206 6.02781 139.089 5.98561 138.928 5.98561C138.605 5.98561 138.393 6.09198 138.291 6.30471C138.189 6.51744 138.138 6.82266 138.138 7.22038V8.50024C138.138 8.69678 138.092 8.84535 137.999 8.94594C137.907 9.04652 137.785 9.09681 137.633 9.09681C137.484 9.09681 137.362 9.04652 137.267 8.94594C137.172 8.84535 137.125 8.69678 137.125 8.50024V5.79137C137.125 5.61333 137.167 5.47806 137.253 5.38556C137.338 5.29308 137.45 5.24683 137.59 5.24683C137.724 5.24683 137.837 5.29019 137.927 5.37689C138.017 5.46361 138.062 5.58327 138.062 5.73588V5.82606C138.233 5.62952 138.416 5.485 138.61 5.3925C138.805 5.30001 139.021 5.25377 139.259 5.25376C139.507 5.25377 139.72 5.30117 139.897 5.39597C140.075 5.49078 140.222 5.63414 140.337 5.82606C140.503 5.63183 140.681 5.48789 140.871 5.39424C141.061 5.30059 141.271 5.25377 141.502 5.25376C141.771 5.25377 142.003 5.30464 142.198 5.40637C142.393 5.50812 142.538 5.65379 142.634 5.8434C142.718 6.01451 142.76 6.2839 142.76 6.65155V8.50024C142.76 8.6991 142.713 8.84824 142.62 8.94767C142.526 9.0471 142.402 9.09681 142.248 9.09681C142.099 9.09681 141.977 9.04652 141.882 8.94594C141.787 8.84535 141.74 8.69678 141.74 8.50024V6.90822C141.74 6.70474 141.731 6.54172 141.713 6.41916C141.695 6.29662 141.646 6.19372 141.567 6.11047C141.488 6.02723 141.367 5.98561 141.206 5.98561C141.076 5.98561 140.953 6.02261 140.837 6.0966C140.72 6.17059 140.629 6.27002 140.564 6.39489C140.492 6.55444 140.456 6.83654 140.456 7.24119Z" fill="#1B243F"/>
</svg>
