<svg width="76" height="42" viewBox="0 0 76 42" fill="none" xmlns="http://www.w3.org/2000/svg">
<g clip-path="url(#clip0_834_4093)">
<mask id="mask0_834_4093" style="mask-type:luminance" maskUnits="userSpaceOnUse" x="0" y="0" width="75" height="42">
<path d="M0.470703 41.7458H74.9713V0.25399H0.470703V41.7458Z" fill="white"/>
</mask>
<g mask="url(#mask0_834_4093)">
<path d="M0.470703 41.5153H2.1403V38.1462C2.1403 37.5462 2.1403 36.806 2.44269 36.3724C2.74357 35.901 3.28393 35.7477 3.58557 35.7477C4.99218 35.7477 4.99218 37.433 4.99218 38.0184V41.5153H6.66102V37.6872C6.66102 37.1372 6.66102 35.9518 6.02138 35.1739C5.44464 34.4584 4.52685 34.1888 3.9251 34.1888C2.86938 34.1888 2.29188 34.778 2.01601 35.046V34.4314H0.470703V41.5153Z" fill="#1B243F"/>
<path fill-rule="evenodd" clip-rule="evenodd" d="M14.2545 38.7333C14.3023 38.5046 14.3545 38.2103 14.3545 37.8791C14.3545 36.0937 12.9601 34.1504 10.7501 34.1504C8.60228 34.1504 7.0835 35.9905 7.0835 37.9931C7.0835 40.0597 8.69095 41.7457 10.763 41.7457C12.3954 41.7457 13.7255 40.5603 14.1279 39.2833H12.3689C12.0559 39.8702 11.5042 40.1883 10.763 40.1883C9.57008 40.1883 8.9168 39.1932 8.84101 38.7333H14.2545ZM8.79099 37.3677C9.10475 36.0529 10.1476 35.7086 10.763 35.7086C11.5921 35.7086 12.4576 36.2316 12.6463 37.3677H8.79099Z" fill="#1B243F"/>
<path d="M16.4972 41.5153H17.5248L18.8443 36.9216H18.8685L20.1759 41.5153H21.2051L23.7538 34.4314H21.9713L20.689 38.7586H20.6647L19.5332 34.4314H18.2039L17.061 38.7586H17.036L15.7681 34.4314H13.9848L16.4972 41.5153Z" fill="#1B243F"/>
<path fill-rule="evenodd" clip-rule="evenodd" d="M26.9863 41.5152H28.5172V40.6602C28.9303 41.1331 29.5229 41.7455 30.8666 41.7455C33.4146 41.7455 34.3317 39.3593 34.3317 37.9413C34.3317 36.0673 32.9508 34.1887 30.8288 34.1887C30.0497 34.1887 29.2327 34.4837 28.6552 35.0714V32.0713H26.9863V41.5152ZM28.5544 37.8789C28.5544 36.8452 29.3456 35.7477 30.6264 35.7477C31.6821 35.7477 32.6621 36.5757 32.6621 37.9559C32.6621 39.3323 31.745 40.1888 30.6522 40.1888C29.673 40.1888 28.5544 39.4486 28.5544 37.8789Z" fill="#1B243F"/>
<path fill-rule="evenodd" clip-rule="evenodd" d="M42.1277 34.4317H40.5945V35.3275H40.5695C40.5188 35.2243 39.6768 34.1883 38.2595 34.1883C36.3262 34.1883 34.768 35.7588 34.768 37.9301C34.768 40.2901 36.3633 41.7458 38.1595 41.7458C39.0371 41.7458 40.0678 41.2722 40.5945 40.6375V41.5155H42.1277V34.4317ZM40.546 37.9563C40.546 39.2703 39.6654 40.1884 38.5096 40.1884C37.3175 40.1884 36.4376 39.2056 36.4376 38.0064C36.4376 36.9473 37.1409 35.748 38.5096 35.748C39.5024 35.748 40.546 36.4874 40.546 37.9563Z" fill="#1B243F"/>
<path d="M44.6851 32.0716H43.0155V41.5155H44.6851V32.0716Z" fill="#1B243F"/>
<path fill-rule="evenodd" clip-rule="evenodd" d="M52.5452 34.4317H51.0135V35.3275H50.9877C50.937 35.2243 50.095 34.1883 48.6777 34.1883C46.7421 34.1883 45.1862 35.7588 45.1862 37.9301C45.1862 40.2901 46.7815 41.7458 48.577 41.7458C49.4553 41.7458 50.4845 41.2722 51.0135 40.6375V41.5155H52.5452V34.4317ZM50.9627 37.9563C50.9627 39.2703 50.0844 40.1884 48.9286 40.1884C47.735 40.1884 46.8566 39.2056 46.8566 38.0064C46.8566 36.9473 47.5599 35.748 48.9286 35.748C49.9207 35.748 50.9627 36.4874 50.9627 37.9563Z" fill="#1B243F"/>
<path d="M53.4341 41.5153H55.1029V38.1462C55.1029 37.5462 55.1029 36.806 55.4053 36.3724C55.7062 35.901 56.2481 35.7477 56.5482 35.7477C57.954 35.7477 57.954 37.433 57.954 38.0184V41.5153H59.6252V37.6872C59.6252 37.1372 59.6252 35.9518 58.9832 35.1739C58.4057 34.4584 57.4902 34.1888 56.887 34.1888C55.8312 34.1888 55.2553 34.778 54.9779 35.046V34.4314H53.4341V41.5153Z" fill="#1B243F"/>
<path d="M65.5587 39.2058C65.1184 39.9206 64.5674 40.1886 64.0149 40.1886C62.7576 40.1886 61.9171 39.1804 61.9171 37.968C61.9171 36.513 62.922 35.7474 63.9383 35.7474C64.9683 35.7474 65.3586 36.4237 65.5587 36.7803H67.4435C66.7273 34.5974 64.8167 34.1885 63.9383 34.1885C62.0171 34.1885 60.2475 35.7736 60.2475 37.941C60.2475 40.2903 62.1664 41.7452 63.952 41.7452C65.5845 41.7452 66.8766 40.7878 67.4435 39.2058H65.5587Z" fill="#1B243F"/>
<path fill-rule="evenodd" clip-rule="evenodd" d="M74.8715 38.7333C74.9207 38.5046 74.9707 38.2103 74.9707 37.8791C74.9707 36.0937 73.5778 34.1504 71.3678 34.1504C69.22 34.1504 67.7004 35.9905 67.7004 37.9931C67.7004 40.0597 69.3079 41.7457 71.3799 41.7457C73.0116 41.7457 74.344 40.5603 74.7449 39.2833H72.9874C72.6729 39.8702 72.1219 40.1883 71.3799 40.1883C70.1863 40.1883 69.5337 39.1932 69.4602 38.7333H74.8715ZM69.4087 37.3677C69.7232 36.0529 70.7645 35.7086 71.3799 35.7086C72.2098 35.7086 73.0753 36.2316 73.2632 37.3677H69.4087Z" fill="#1B243F"/>
<path fill-rule="evenodd" clip-rule="evenodd" d="M28.8934 18.036L26.6614 21.9534L14.3073 21.2471L15.5442 19.065L28.8934 18.036ZM37.8242 5.55356L38.9435 9.8769L21.4139 8.70614L22.65 6.52483L37.8242 5.55356ZM26.2029 0.254339L36.4638 0.262041L37.2383 3.21821L24.9683 2.43565L26.2029 0.254339ZM25.301 24.3897L23.5193 27.503L10.7544 27.5168L11.9905 25.3363L25.301 24.3897ZM47.7122 15.9903L44.6223 21.4335H47.5651C48.9285 21.4335 51.3719 20.7418 52.1237 18.7685C52.8202 16.9346 51.5402 15.988 50.6466 15.988L47.7122 15.9903ZM50.6588 10.7835L53.2257 10.7673C54.9339 10.758 56.7157 9.96394 57.3675 8.3526C57.9685 6.85757 57.1606 5.58437 56.0897 5.58899L53.6069 5.58591L50.6588 10.7835ZM39.0398 9.8769L41.6317 5.30709L50.4041 4.7348L50.7103 4.18023L42.5957 3.60332L44.4935 0.254339L59.5418 0.253571C64.1694 0.253571 67.5927 1.935 66.2619 6.87991C65.8617 8.37802 63.9807 12.1491 58.4641 13.7288C59.635 13.8706 62.5513 15.1838 62.0489 18.5883C61.1561 24.6254 53.4652 27.4991 49.187 27.5007L31.4209 27.5091L30.5455 24.0161L39.8507 23.3491L40.1668 22.7961L30.0741 22.1714L28.9866 18.0306L43.3476 17.1787L43.6598 16.6303L17.8595 14.9759L19.0956 12.7953L46.8671 10.9629L47.1816 10.4138L39.0398 9.8769Z" fill="#1B243F"/>
</g>
</g>
<defs>
<clipPath id="clip0_834_4093">
<rect width="75" height="42" fill="white" transform="translate(0.220703)"/>
</clipPath>
</defs>
</svg>
