<svg width="74" height="42" viewBox="0 0 74 42" fill="none" xmlns="http://www.w3.org/2000/svg">
<path fill-rule="evenodd" clip-rule="evenodd" d="M13.6842 24.3619C13.1223 24.3619 12.6824 24.755 12.6824 25.3286C12.6824 25.9025 13.1246 26.2934 13.6842 26.2934C14.2435 26.2934 14.686 25.8999 14.686 25.3286C14.686 24.755 14.2457 24.3619 13.6842 24.3619ZM13.6842 26.017C13.2836 26.017 12.9864 25.7243 12.9864 25.3286C12.9864 24.9332 13.2813 24.6383 13.6842 24.6383C14.0822 24.6383 14.3817 24.9377 14.3817 25.3286C14.3817 25.7171 14.0796 26.017 13.6842 26.017ZM23.4323 20.9807H18.5554L19.1097 12.5041L15.9427 20.9807H11.414L18.5996 1.82104H23.4183L22.8621 10.414L26.0892 1.82104H30.6182L23.4323 20.9807ZM24.0206 20.9807L31.2058 1.82104H35.7345L28.5493 20.9807H24.0206Z" fill="#1B243F"/>
<path fill-rule="evenodd" clip-rule="evenodd" d="M10.8919 14.3767C4.56348 21.8085 -1.4062 31.6971 3.86679 36.2507C8.97627 40.6635 15.3628 38.0508 19.7175 36.3088C24.0721 34.5669 72.2038 13.6653 72.2038 13.6653C72.6682 13.4331 72.5814 13.1427 72.0006 13.2877C71.7665 13.3462 19.6015 27.4833 19.6015 27.4833C12.982 29.3415 5.43426 25.2916 10.8919 14.3767Z" fill="#1B243F"/>
<path fill-rule="evenodd" clip-rule="evenodd" d="M13.8547 25.3965C13.9952 25.3897 14.1051 25.3172 14.1051 25.1227C14.1051 24.872 13.9412 24.8089 13.6674 24.8089H13.2739V25.8485H13.5364V25.4059H13.5805L13.8196 25.8485H14.1213L13.8547 25.3965ZM13.6863 25.2281H13.5367V24.9868H13.6629C13.7403 24.9868 13.829 24.9958 13.829 25.0967C13.829 25.2046 13.7777 25.2281 13.6863 25.2281ZM59.2082 1.76245C58.6464 1.76245 58.2064 2.15592 58.2064 2.72914C58.2064 3.30273 58.649 3.69356 59.2082 3.69356C59.7675 3.69356 60.2101 3.30009 60.2101 2.72914C60.2104 2.15592 59.7705 1.76245 59.2082 1.76245ZM59.2082 3.4179C58.8076 3.4179 58.5104 3.12526 58.5104 2.72952C58.5104 2.33416 58.8053 2.03924 59.2082 2.03924C59.6063 2.03924 59.9061 2.33869 59.9061 2.72952C59.9061 3.11808 59.604 3.4179 59.2082 3.4179Z" fill="#1B243F"/>
<path fill-rule="evenodd" clip-rule="evenodd" d="M59.3796 2.79717C59.52 2.79038 59.6303 2.71788 59.6303 2.5234C59.6303 2.27267 59.466 2.20961 59.1926 2.20961H58.7992V3.2488H59.0612V2.80661H59.1058L59.3444 3.2488H59.6465L59.3796 2.79717ZM59.2108 2.62876H59.0612V2.38746H59.1877C59.2648 2.38746 59.3539 2.3969 59.3539 2.49773C59.3539 2.60535 59.3021 2.62876 59.2108 2.62876ZM56.2246 5.01452L57.4416 1.82104H43.6233L38.8786 7.56907L41.0691 1.82104H36.4823L29.3544 20.9807H33.8831L36.9263 12.9686L37.1348 20.9807L51.0305 20.9505L52.3533 17.265H47.0701L48.806 12.6204H53.1603L54.5 9.04968H50.1458L51.6385 5.01452H56.2246ZM41.6276 19.7033L41.3372 9.71731L48.1845 2.19941L41.6276 19.7033Z" fill="#1B243F"/>
</svg>
