<svg width="154" height="41" viewBox="0 0 154 41" fill="none" xmlns="http://www.w3.org/2000/svg">
<path d="M27.8214 3.30627H10.3357C5.50718 3.30627 1.59286 7.17076 1.59286 11.9379V29.201C1.59286 33.9681 5.50718 37.8326 10.3357 37.8326H27.8214C32.65 37.8326 36.5643 33.9681 36.5643 29.201V11.9379C36.5643 7.17076 32.65 3.30627 27.8214 3.30627Z" fill="#943CF4"/>
<mask id="mask0_834_4022" style="mask-type:luminance" maskUnits="userSpaceOnUse" x="4" y="9" width="30" height="23">
<path d="M33.2857 9.77991H4.87143V31.3589H33.2857V9.77991Z" fill="white"/>
</mask>
<g mask="url(#mask0_834_4022)">
<path d="M5.96643 23.4248H10.2767C10.3138 25.0022 11.5028 25.9927 13.5836 25.9927C15.7016 25.9927 16.8535 25.149 16.8535 23.8284C16.8535 22.9112 16.3704 22.2509 14.7355 21.8841L11.4285 21.1136C8.12155 20.3799 6.52379 18.8392 6.52379 15.9412C6.52379 12.3828 9.57067 10.2551 13.8066 10.2551C17.931 10.2551 20.7178 12.6029 20.755 16.1246H16.4447C16.4076 14.5838 15.3672 13.5934 13.6208 13.5934C11.8373 13.5934 10.7969 14.4004 10.7969 15.7577C10.7969 16.7849 11.6143 17.4452 13.1749 17.8121L16.4819 18.5824C19.5659 19.2794 21.1265 20.6734 21.1265 23.4615C21.1265 27.1299 17.9682 29.4044 13.435 29.4044C8.86469 29.4044 5.96643 26.9832 5.96643 23.4248ZM16.8494 23.4248H21.1596C21.1968 25.0022 22.3858 25.9927 24.4666 25.9927C26.5845 25.9927 27.7364 25.149 27.7364 23.8284C27.7364 22.9112 27.2534 22.2509 25.6184 21.8841L22.3115 21.1136C19.0045 20.3799 16.4447 19.0226 16.4447 16.1246C16.4447 12.5662 10.087 11.2719 14.3229 11.2719C18.4474 11.2719 16.8123 9.92736 16.8494 13.449L18.016 12.8608C17.9789 11.3201 21.1374 14.0524 19.391 14.0524C17.6075 14.0524 20.7505 14.5838 20.7505 15.9412C20.7505 16.9683 22.4973 17.4452 24.0579 17.8121L27.3648 18.5824C30.4489 19.2794 32.0095 20.6734 32.0095 23.4615C32.0095 27.1299 28.8511 29.4044 24.3179 29.4044C19.7477 29.4044 16.8494 26.9832 16.8494 23.4248Z" fill="white"/>
</g>
<mask id="mask1_834_4022" style="mask-type:luminance" maskUnits="userSpaceOnUse" x="40" y="1" width="113" height="39">
<path d="M152.407 1.14832H40.9357V39.9904H152.407V1.14832Z" fill="white"/>
</mask>
<g mask="url(#mask1_834_4022)">
<path d="M42.8397 24.8469H47.1499C47.1871 26.4243 48.3761 27.4148 50.4569 27.4148C52.5749 27.4148 53.7267 26.571 53.7267 25.2504C53.7267 24.3333 53.2437 23.673 51.6088 23.3062L48.3018 22.5356C44.9948 21.8019 43.3971 20.2612 43.3971 17.3631C43.3971 13.8047 46.4439 11.6771 50.6798 11.6771C54.8043 11.6771 57.5911 14.0249 57.6282 17.5465H53.318C53.2809 16.0058 52.2405 15.0153 50.4941 15.0153C48.7105 15.0153 47.6701 15.8224 47.6701 17.1797C47.6701 18.2069 48.4876 18.8672 50.0482 19.234L53.3552 20.0044C56.4392 20.7014 57.9998 22.0954 57.9998 24.8836C57.9998 28.552 54.8414 30.8264 50.3083 30.8264C45.7379 30.8264 42.8397 28.4053 42.8397 24.8469ZM63.7181 30.8264C58.2558 30.8264 54.4286 26.9012 54.4286 21.2883C54.4286 15.6023 58.1814 11.6771 63.5694 11.6771C69.0687 11.6771 72.5615 15.3088 72.5615 20.9582V22.3155L58.7388 22.3521C59.0732 25.5439 60.7824 27.158 63.7924 27.158C66.2819 27.158 67.9168 26.2042 68.437 24.48H72.6358C71.8555 28.4419 68.5113 30.8264 63.7181 30.8264ZM63.6066 15.3455C60.9311 15.3455 59.2962 16.7762 58.8503 19.4908H68.0655C68.0655 16.9963 66.3191 15.3455 63.6066 15.3455ZM78.4559 30.8264C72.9938 30.8264 69.1666 26.9012 69.1666 21.2883C69.1666 15.6023 72.9195 11.6771 78.3073 11.6771C83.8068 11.6771 87.2995 15.3088 87.2995 20.9582V22.3155L73.4769 22.3521C73.8113 25.5439 75.5205 27.158 78.5302 27.158C81.02 27.158 82.6549 26.2042 83.1749 24.48H87.3738C86.5935 28.4419 83.2494 30.8264 78.4559 30.8264ZM78.3447 15.3455C75.6691 15.3455 74.0342 16.7762 73.5883 19.4908H82.8035C82.8035 16.9963 81.0569 15.3455 78.3447 15.3455ZM89.5526 30.3495H85.0565V3.05627H89.5526V19.821L96.6867 12.2273H102.372L95.3862 19.4174L102.223 30.3495H97.0211L92.2279 22.719L89.5526 25.4705V30.3495ZM97.5827 24.8469H101.893C101.93 26.4243 103.119 27.4148 105.2 27.4148C107.318 27.4148 108.47 26.571 108.47 25.2504C108.47 24.3333 107.987 23.673 106.352 23.3062L103.045 22.5356C99.7378 21.8019 98.14 20.2612 98.14 17.3631C98.14 13.8047 101.187 11.6771 105.423 11.6771C109.547 11.6771 112.334 14.0249 112.371 17.5465H108.061C108.024 16.0058 106.983 15.0153 105.237 15.0153C103.453 15.0153 102.413 15.8224 102.413 17.1797C102.413 18.2069 103.231 18.8672 104.791 19.234L108.098 20.0044C111.182 20.7014 112.743 22.0954 112.743 24.8836C112.743 28.552 109.584 30.8264 105.051 30.8264C100.481 30.8264 97.5827 28.4053 97.5827 24.8469ZM116.491 30.3495H111.958V15.9691H108.428V12.2273H111.958V6.57796H116.491V12.2273H120.059V15.9691H116.491V30.3495ZM115.334 38.7502V35.0084H118.046C119.83 35.0084 120.945 34.6049 121.725 32.4772L122.245 31.1199L114.851 12.2273H119.644L124.363 25.4338L129.342 12.2273H134.024L125.032 34.3848C123.657 37.7597 121.725 39.1537 118.715 39.1537C117.452 39.1537 116.337 39.007 115.334 38.7502ZM135.224 30.3495H130.728V3.05627H135.224V30.3495ZM142.246 30.8264C136.784 30.8264 132.956 26.9012 132.956 21.2883C132.956 15.6023 136.709 11.6771 142.097 11.6771C147.596 11.6771 151.089 15.3088 151.089 20.9582V22.3155L137.267 22.3521C137.601 25.5439 139.31 27.158 142.32 27.158C144.81 27.158 146.445 26.2042 146.965 24.48H151.163C150.383 28.4419 147.039 30.8264 142.246 30.8264ZM142.134 15.3455C139.459 15.3455 137.824 16.7762 137.378 19.4908H146.593C146.593 16.9963 144.847 15.3455 142.134 15.3455Z" fill="#1B243F"/>
</g>
</svg>
