<svg width="136" height="28" viewBox="0 0 136 28" fill="none" xmlns="http://www.w3.org/2000/svg">
<g clip-path="url(#clip0_834_4056)">
<mask id="mask0_834_4056" style="mask-type:luminance" maskUnits="userSpaceOnUse" x="114" y="0" width="22" height="29">
<path d="M114.576 0H135.779V28.0002H114.576V0Z" fill="white"/>
</mask>
<g mask="url(#mask0_834_4056)">
<path d="M114.758 -0.000732422C114.832 0.0718111 114.908 0.145143 114.982 0.217686C119.976 4.72642 124.97 9.23594 129.967 13.7455C129.967 9.45357 129.967 5.08992 129.967 0.799611C131.904 0.799611 133.842 0.799611 135.78 0.799611C135.78 9.89041 135.78 18.9087 135.78 28.0002C130.711 23.4182 125.643 18.7628 120.498 14.1815C120.498 18.4734 120.498 22.7637 120.498 27.0548C118.56 27.0548 116.696 27.0548 114.758 27.0548C114.758 18.1083 114.758 9.01752 114.758 -0.000732422Z" fill="#1B243F"/>
</g>
<mask id="mask1_834_4056" style="mask-type:luminance" maskUnits="userSpaceOnUse" x="0" y="0" width="23" height="29">
<path d="M0.779295 0.201904H22.5041V28.0002H0.779295V0.201904Z" fill="white"/>
</mask>
<g mask="url(#mask1_834_4056)">
<path d="M2.79175 4.21776C4.35726 1.96261 7.1157 0.727002 9.79897 0.43604C13.899 0.0717456 18.3717 0.727002 21.5771 3.48996C20.2354 4.72635 18.8194 5.8902 17.477 7.1266C15.9867 5.81766 13.9742 5.16319 11.9609 5.16319C10.4698 5.08986 8.90427 5.59924 8.08474 6.83563C7.48828 7.70852 7.71216 9.01746 8.53169 9.67192C9.87332 10.7632 11.5875 11.2718 13.2282 11.8537C15.6133 12.5815 17.9991 13.3811 19.9372 14.981C22.6205 17.0911 23.2169 21.3814 21.1301 24.0726C19.3407 26.4003 16.4336 27.6367 13.5265 27.8535C10.9167 27.9261 8.30781 27.8535 5.84761 26.9822C3.98467 26.4003 2.34481 25.3815 0.779295 24.2894C2.12093 23.0538 3.53692 21.8174 4.87937 20.581C7.19005 22.3268 10.1716 23.2722 13.0795 22.9087C14.346 22.6911 15.6884 22.0358 16.1354 20.7995C16.4336 19.7089 15.7628 18.6176 14.7937 18.1083C11.8122 16.435 8.30781 16.0731 5.40066 14.254C3.83515 13.3086 2.49352 11.8537 1.97141 10.1088C1.37576 8.07203 1.59882 5.8902 2.79175 4.21776Z" fill="#1B243F"/>
</g>
<path d="M32.3118 0.87207C34.2499 0.87207 36.188 0.87207 38.1261 0.87207C38.1261 4.36283 38.1261 7.78104 38.1261 11.2718C42.0774 11.2718 45.9536 11.2718 49.9042 11.2718C49.9042 7.78104 49.9042 4.36283 49.9042 0.87207C51.8431 0.87207 53.8547 0.87207 55.7937 0.87207C55.7937 9.67191 55.7937 18.3992 55.7937 27.199C53.8547 27.199 51.8431 27.199 49.9042 27.199C49.9042 23.3456 49.9042 19.4172 49.9042 15.5637C45.9536 15.5637 42.0774 15.5637 38.1261 15.5637C38.1261 19.4172 38.1261 23.3456 38.1261 27.199C36.188 27.199 34.2499 27.199 32.3118 27.199C32.3118 18.4733 32.3118 9.67191 32.3118 0.87207Z" fill="#1B243F"/>
<path d="M67.1984 0.87207C73.833 0.87207 80.3933 0.87207 87.0279 0.87207C87.0279 2.25355 87.0279 3.70836 87.0279 5.08984C82.3314 5.08984 77.6348 5.08984 72.9391 5.08984C72.9391 7.19912 72.9391 9.23586 72.9391 11.3451C77.5597 11.3451 82.1827 11.3451 86.804 11.3451C86.804 12.7266 86.804 14.1081 86.804 15.4904C82.1827 15.4904 77.5597 15.4904 72.9391 15.4904C72.9391 17.8906 72.9391 20.2908 72.9391 22.6911C77.6348 22.6911 82.3314 22.6911 87.0279 22.6911C87.0279 24.2177 87.0279 25.6725 87.0279 27.199C80.3933 27.199 73.833 27.199 67.1984 27.199C67.1984 18.4733 67.1984 9.67191 67.1984 0.87207Z" fill="#1B243F"/>
<path d="M97.3892 0.87207C99.3273 0.87207 101.266 0.87207 103.204 0.87207C103.204 9.67191 103.204 18.3992 103.204 27.199C101.266 27.199 99.3273 27.199 97.3892 27.199C97.3892 18.4733 97.3892 9.67191 97.3892 0.87207Z" fill="#1B243F"/>
</g>
<defs>
<clipPath id="clip0_834_4056">
<rect width="135" height="28" fill="white" transform="translate(0.779297)"/>
</clipPath>
</defs>
</svg>
