<svg width="70" height="30" viewBox="0 0 70 30" fill="none" xmlns="http://www.w3.org/2000/svg">
<g clip-path="url(#clip0_834_4054)">
<path d="M66.2402 29.1123L56.0173 0.0191978L56.0103 0H55.8086L53.7034 5.97855L49.871 16.8625L49.862 16.8539C48.5337 15.6425 46.6597 14.8851 44.2997 14.6031L43.5798 14.5263L44.2939 14.4317C48.1859 13.7088 50.8022 11.168 50.8022 8.1069C50.8022 3.90913 46.9825 0.979107 41.5112 0.979107H30.1272V1.19161H33.4351V22.8821L25.4013 0.0191978L25.3943 0H25.1926L23.0874 5.97855L14.9678 29.0374L14.9178 29.0434C14.7791 29.0611 14.6418 29.0752 14.506 29.0858C14.3017 29.1023 14.0987 29.1123 13.895 29.1123H5.6909L21.2858 1.1916L21.4017 0.981749H2.32854V9.61891H2.53092C2.56679 5.41188 4.93709 1.19161 10.174 1.19161H16.4921L0.779297 29.3214H21.9474V21.0464H21.745C21.7175 24.7132 19.7065 28.196 15.3335 28.9825L15.1945 29.007L18.5248 19.545H27.8543L31.216 29.1123H27.8997V29.3214H40.9156V29.1123H37.5852V14.6806H41.4279C45.3385 14.6806 47.5814 16.4865 47.5814 19.6337V22.1937C47.5814 22.4757 47.5999 22.8881 47.6204 23.233V23.2456L45.555 29.1109H42.8568V29.3201H48.4421V29.1109H45.7727L47.6537 23.7699C47.6576 23.8215 47.6595 23.8526 47.6595 23.8526L47.7114 24.3339L47.7613 24.6523C48.0751 26.6218 48.804 28.0696 49.9267 28.9554L50.0881 29.0765C50.9411 29.6895 52.0011 30 53.2404 30C54.8818 30 55.9763 29.577 56.88 28.5813L56.7615 28.4661C55.929 29.2605 55.2302 29.5823 54.3547 29.5823C52.8631 29.5823 52.0824 27.7121 52.0824 25.8678V22.281C52.0904 21.391 51.9556 20.5059 51.6834 19.6615L51.6463 19.5503V19.5463H58.4703L61.832 29.1136H58.5157V29.3228H69.7793V29.1136L66.2402 29.1123ZM18.5991 19.3358L23.195 6.2844L27.7806 19.3358H18.5991ZM37.5872 14.4707V1.19161H40.5204C44.4387 1.19161 46.5073 3.59931 46.5073 8.15191C46.5073 12.9938 45.3199 14.4707 41.4279 14.4707H37.5872ZM51.5669 19.3358L51.547 19.2842C51.2438 18.5207 50.8023 17.8242 50.2463 17.2319L50.0541 17.0333L50.0336 17.0135L53.8084 6.2844L58.394 19.3358H51.5669Z" fill="#1B243F"/>
</g>
<defs>
<clipPath id="clip0_834_4054">
<rect width="69" height="30" fill="white" transform="translate(0.779297)"/>
</clipPath>
</defs>
</svg>
