<svg width="1440" height="866" viewBox="0 0 1440 866" fill="none" xmlns="http://www.w3.org/2000/svg">
<g clip-path="url(#clip0_834_4016)" filter="url(#filter0_d_834_4016)">
<rect width="1440" height="866" transform="translate(52 48)" fill="white"/>
<g filter="url(#filter1_f_834_4016)">
<path d="M1209.45 1250.04L1324.56 683.911L1504.37 445.892L1111.41 262.278L1004.6 -98.2093L141.38 194.824C223.326 199.42 457.731 237.575 739.775 353.429C1021.82 469.283 1170.41 999.44 1209.45 1250.04Z" fill="url(#paint0_linear_834_4016)" fill-opacity="0.08"/>
<path d="M1209.45 1250.04L1324.56 683.911L1504.37 445.892L1111.41 262.278L1004.6 -98.2093L141.38 194.824C223.326 199.42 457.731 237.575 739.775 353.429C1021.82 469.283 1170.41 999.44 1209.45 1250.04Z" stroke="#7B7B7B"/>
</g>
<circle cx="1378.95" cy="899.468" r="822.287" stroke="#D6DADE" stroke-width="0.2"/>
<path d="M2201.24 955.898C2201.24 1302.62 1909.75 1583.7 1550.17 1583.7C1190.59 1583.7 899.1 1302.62 899.1 955.898C899.1 609.178 1190.59 328.1 1550.17 328.1C1909.75 328.1 2201.24 609.178 2201.24 955.898Z" stroke="#D6DADE" stroke-width="0.2"/>
<path d="M244.141 -27.1465L1553.1 869.149L1610.67 995.833" stroke="#D6DADE" stroke-width="0.2"/>
</g>
<defs>
<filter id="filter0_d_834_4016" x="0" y="0" width="1440" height="866" filterUnits="userSpaceOnUse" color-interpolation-filters="sRGB">
<feFlood flood-opacity="0" result="BackgroundImageFix"/>
<feColorMatrix in="SourceAlpha" type="matrix" values="0 0 0 0 0 0 0 0 0 0 0 0 0 0 0 0 0 0 127 0" result="hardAlpha"/>
<feOffset dy="4"/>
<feGaussianBlur stdDeviation="26"/>
<feComposite in2="hardAlpha" operator="out"/>
<feColorMatrix type="matrix" values="0 0 0 0 0 0 0 0 0 0 0 0 0 0 0 0 0 0 0.25 0"/>
<feBlend mode="normal" in2="BackgroundImageFix" result="effect1_dropShadow_834_4016"/>
<feBlend mode="normal" in="SourceGraphic" in2="effect1_dropShadow_834_4016" result="shape"/>
</filter>
<filter id="filter1_f_834_4016" x="33.2188" y="-206.85" width="1579.92" height="1564.99" filterUnits="userSpaceOnUse" color-interpolation-filters="sRGB">
<feFlood flood-opacity="0" result="BackgroundImageFix"/>
<feBlend mode="normal" in="SourceGraphic" in2="BackgroundImageFix" result="shape"/>
<feGaussianBlur stdDeviation="54" result="effect1_foregroundBlur_834_4016"/>
</filter>
<linearGradient id="paint0_linear_834_4016" x1="1550.9" y1="857.961" x2="654.258" y2="158.803" gradientUnits="userSpaceOnUse">
<stop stop-color="#936FF4"/>
<stop offset="0.595" stop-color="#2DA39C"/>
<stop offset="1" stop-color="#AE0068"/>
</linearGradient>
<clipPath id="clip0_834_4016">
<rect width="1440" height="866" fill="white" transform="translate(52 48)"/>
</clipPath>
</defs>
</svg>
